{"title":"Jaats In Golmaal (2013) - DVDRip - Punjabi Movie","uid":8659657,"size":729766282,"categoryP":"video","categoryS":"movies","magnet":"?xt=urn:btih:3f20409e8753102dff2d808f1a517adf5944a444&amp;dn=Jaats+In+Golmaal+%282013%29+-+DVDRip+-+Punjabi+Movie&amp;tr=udp%3A%2F%2Ftracker.openbittorrent.com%3A80&amp;tr=udp%3A%2F%2Fopen.demonii.com%3A1337&amp;tr=udp%3A%2F%2Ftracker.coppersurfer.tk%3A6969&amp;tr=udp%3A%2F%2Fexodus.desync.com%3A6969","seeders":1,"leechers":0,"uploader":"JalsaDude","files":2,"time":1373294994,"description":"[CENTER]Jaats In Golmaal (2013) - DVDRip - Punjabi Movie - JalsaTime\n\n[FONT=Tahoma][B][IMG]http://img585.imageshack.us/img585/6128/26bd.jpg[/IMG]\n[/B][/FONT]\n[CODE]\nFormat                                   : AVI\nFormat/Info                              : Audio Video Interleave\nFile size                                : 696 MiB\nDuration                                 : 2h 10mn\nOverall bit rate                         : 744 Kbps\n\nVideo\nCodec ID                                 : XVID\nCodec ID/Hint                            : XviD\nDuration                                 : 2h 10mn\nBit rate                                 : 655 Kbps\nWidth                                    : 656 pixels\nHeight                                   : 272 pixels\nDisplay aspect ratio                     : 2.40:1\nFrame rate                               : 23.976 fps\nColor space                              : YUV\nChroma subsampling                       : 4:2:0\nBit depth                                : 8 bits\nScan type                                : Progressive\nCompression mode                         : Lossy\nBits/(Pixel*Frame)                       : 0.153\nStream size                              : 612 MiB (88%)\n\nAudio\nFormat                                   : MPEG Audio\nFormat version                           : Version 1\nFormat profile                           : Layer 3\nMode                                     : Joint stereo\nMode extension                           : MS Stereo\nCodec ID                                 : 55\nCodec ID/Hint                            : MP3\nDuration                                 : 2h 10mn\nBit rate mode                            : Constant\nBit rate                                 : 80.0 Kbps\nChannel(s)                               : 2 channels\nSampling rate                            : 32.0 KHz\nCompression mode                         : Lossy\nStream size                              : 74.8 MiB (11%)\n[/CODE][FONT=Tahoma][B][IMG]http://www.jalsatime.com/forums/teamjalsa/screenshots.png[/IMG]\n\n[/B][/FONT]\n[FONT=Tahoma][B][IMG]http://imageshack.us/a/img545/8537/2yq.png[/IMG][/B][/FONT]\n[FONT=Tahoma][B][IMG]http://imageshack.us/a/img59/2585/dloy.png[/IMG][/B][/FONT]\n[FONT=Tahoma][B][IMG]http://imageshack.us/a/img607/2341/hw9p.png[/IMG][/B][/FONT]\n[FONT=Tahoma][B][IMG]http://imageshack.us/a/img819/4556/sowr.png[/IMG][/B][/FONT]\n[FONT=Tahoma][B][IMG]http://imageshack.us/a/img41/8053/4emv.png[/IMG]\n[/B][/FONT]\nDownload - Seed - Enjoy !\nCredits To Original Source Provider (DDR Team)\n[/CENTER]","torrent":{"xt":"urn:btih:3f20409e8753102dff2d808f1a517adf5944a444","amp;dn":"Jaats+In+Golmaal+%282013%29+-+DVDRip+-+Punjabi+Movie","amp;tr":["udp%3A%2F%2Ftracker.openbittorrent.com%3A80","udp%3A%2F%2Fopen.demonii.com%3A1337","udp%3A%2F%2Ftracker.coppersurfer.tk%3A6969","udp%3A%2F%2Fexodus.desync.com%3A6969"],"infoHash":"3f20409e8753102dff2d808f1a517adf5944a444","infoHashBuffer":{"type":"Buffer","data":[63,32,64,158,135,83,16,45,255,45,128,143,26,81,122,223,89,68,164,68]},"announce":[],"urlList":[]}}